Coordinates
version=1
nRows=24
nColumns=24
inDegrees=yes

Units are S.I. units (second, meters, Newtons, ...)
Angles are in degrees.

endheader
time	pelvis_tilt	pelvis_list	pelvis_rotation	pelvis_tx	pelvis_ty	pelvis_tz	hip_flexion_r	hip_adduction_r	hip_rotation_r	knee_angle_r	ankle_angle_r	subtalar_angle_r	mtp_angle_r	hip_flexion_l	hip_adduction_l	hip_rotation_l	knee_angle_l	ankle_angle_l	subtalar_angle_l	mtp_angle_l	lumbar_extension	lumbar_bending	lumbar_rotation
      2.05500000	      9.84070951	      1.39012249	      6.67654510	      0.42920763	      1.01420814	      0.04322218	     -2.62760101	      1.35299175	    -21.98791283	    -15.11712871	      1.01945575	      8.35950084	      5.55965700	      1.85962419	     -7.53785306	    -10.95711066	    -52.23647113	     -5.72073588	    -13.92084993	     19.28190846	    -15.24473240	     -6.27363130	    -27.29509701
      2.06000000	      9.86138987	      1.39900865	      6.40814759	      0.43515761	      1.01504303	      0.04383424	     -3.21958308	      1.44116616	    -21.85615310	    -14.70773413	      1.12340644	      8.66848346	      5.41235259	      2.28961442	     -7.37947851	    -11.22235554	    -51.55949942	     -5.32948225	    -13.62394937	     19.31321113	    -15.22139837	     -6.34657058	    -27.08548116
      2.06500000	      9.89705000	      1.40539734	      6.10789514	      0.44111543	      1.01585007	      0.04450280	     -3.82470282	      1.53118771	    -21.68225352	    -14.29196981	      1.15665846	      8.91187326	      5.35530167	      2.67791790	     -7.22786661	    -11.54300487	    -50.81691772	     -5.02938631	    -13.44823862	     19.33897458	    -15.20933517	     -6.42931957	    -26.85349859
      2.07000000	      9.92483471	      1.41286186	      5.80659309	      0.44705511	      1.01658411	      0.04516189	     -4.41399475	      1.61030796	    -21.50233098	    -13.89537690	      1.24023574	      9.17422817	      5.28181583	      3.06412532	     -7.07509453	    -11.86437035	    -50.03434246	     -4.74465779	    -13.19100613	     19.35985086	    -15.19035056	     -6.51389283	    -26.61555781
      2.07500000	      9.94754746	      1.40670140	      5.50441166	      0.45296707	      1.01722897	      0.04581120	     -4.98862294	      1.69595106	    -21.30783385	    -13.51072828	      1.32254903	      9.42444309	      5.19695557	      3.45071117	     -6.93842633	    -12.19423465	    -49.22192353	     -4.48330759	    -12.94058127	     19.36888634	    -15.16778929	     -6.58195607	    -26.38369025
      2.08000000	      9.97023244	      1.40174625	      5.19849253	      0.45886539	      1.01781900	      0.04647429	     -5.55709482	      1.77476952	    -21.10253707	    -13.13886943	      1.41969002	      9.66560687	      5.09336553	      3.82434895	     -6.80243563	    -12.53497495	    -48.36775869	     -4.26316346	    -12.67795806	     19.36280145	    -15.14691035	     -6.65687758	    -26.14421808
      2.08500000	      9.97900816	      1.38728012	      4.88293935	      0.46475092	      1.01831544	      0.04714588	     -6.10257186	      1.85444836	    -20.88012351	    -12.77917240	      1.52401502	      9.89729396	      4.98061474	      4.20276063	     -6.67799815	    -12.89097086	    -47.48268256	     -4.07034747	    -12.41681568	     19.34618741	    -15.10911056	     -6.72669108	    -25.90521559
      2.09000000	      9.98852110	      1.36660878	      4.56853607	      0.47061954	      1.01874624	      0.04779922	     -6.64212856	      1.93283648	    -20.64613233	    -12.43279536	      1.64184154	     10.11714014	      4.84871670	      4.57147356	     -6.56173883	    -13.25641887	    -46.56719487	     -3.90840141	    -12.15396146	     19.31370262	    -15.07319509	     -6.78444326	    -25.65554455
      2.09500000	     10.00328641	      1.34409632	      4.25199102	      0.47647175	      1.01910851	      0.04845468	     -7.18341298	      2.00723152	    -20.40371207	    -12.09143409	      1.76693138	     10.33029879	      4.71386276	      4.92563677	     -6.45007789	    -13.63016620	    -45.62588736	     -3.77922200	    -11.89184105	     19.27390821	    -15.04515868	     -6.84371614	    -25.41633204
      2.10000000	     10.00119844	      1.30986543	      3.92685737	      0.48230501	      1.01937797	      0.04911076	     -7.69453498	      2.08316688	    -20.14248497	    -11.77264694	      1.90920760	     10.53661424	      4.55351384	      5.28903327	     -6.35184222	    -14.01641632	    -44.66022042	     -3.66958921	    -11.62403699	     19.21730813	    -14.99929715	     -6.88999030	    -25.15300016
      2.10500000	      9.99922518	      1.25449807	      3.61699650	      0.48811317	      1.01958187	      0.04979300	     -8.20229502	      2.18595549	    -19.83395769	    -11.47262511	      2.30690333	     10.72878982	      2.51453108	      5.65460257	     -6.28440550	    -14.39825830	    -43.69470939	     -3.48085233	    -11.27268093	     18.40600836	    -14.95647113	     -6.92160091	    -24.92020133
      2.11000000	      9.99083244	      1.21916822	      3.29898333	      0.49392831	      1.01970978	      0.05042219	     -8.69401006	      2.24585430	    -19.59996796	    -11.18304923	      2.45164212	     10.98165832	      2.51136092	      6.00656888	     -6.19066584	    -14.80235505	    -42.67871818	     -3.47791279	    -11.04309936	     18.42672962	    -14.90785129	     -6.96800614	    -24.67932589
      2.11500000	      9.98555126	      1.16678510	      2.98204411	      0.49972997	      1.01975674	      0.05106693	     -9.18591765	      2.32270450	    -19.33452902	    -10.89307192	      2.59723247	     11.17357086	      2.49136419	      6.35123768	     -6.12160945	    -15.21463739	    -41.65621766	     -3.46612528	    -10.79324339	     18.43715239	    -14.86153507	     -6.99829085	    -24.42936970
      2.12000000	      9.97333382	      1.10484226	      2.66415739	      0.50551256	      1.01973260	      0.05170326	     -9.66241073	      2.40219414	    -19.05833338	    -10.61746671	      2.74885191	     11.34418771	      2.45948939	      6.69654072	     -6.06493090	    -15.63741863	    -40.62017089	     -3.47734170	    -10.53777843	     18.43225611	    -14.81090221	     -7.01643895	    -24.17660554
      2.12500000	      9.96058466	      1.04033874	      2.35115107	      0.51128654	      1.01962603	      0.05233091	    -10.13329770	      2.47960679	    -18.77569052	    -10.35274820	      2.91646777	     11.50413767	      2.41857931	      7.03615580	     -6.01306564	    -16.06605161	    -39.57296904	     -3.50606406	    -10.28139008	     18.41171954	    -14.76095195	     -7.03214996	    -23.92464375
      2.13000000	      9.94668495	      0.96123233	      2.03487557	      0.51704705	      1.01945168	      0.05294655	    -10.59639713	      2.56373177	    -18.49476303	    -10.09929373	      3.08728741	     11.66061994	      2.36762803	      7.37061119	     -5.98024836	    -16.51266664	    -38.51928353	     -3.54846377	    -10.02052223	     18.37674366	    -14.71260632	     -7.02782062	    -23.66602994
      2.13500000	      9.92107846	      0.87768186	      1.72331628	      0.52279470	      1.01919118	      0.05355389	    -11.04060924	      2.64756718	    -18.19287578	     -9.86032765	      3.28234421	     11.80251469	      2.28254980	      7.71335999	     -5.95141163	    -16.95347123	    -37.46204292	     -3.59185032	     -9.75373581	     18.31328395	    -14.65049365	     -7.01931673	    -23.40006305
      2.14000000	      9.90433285	      0.79367869	      1.42096321	      0.52855800	      1.01887942	      0.05415529	    -11.49034847	      2.72810387	    -17.94257376	     -9.63542281	      3.46504439	     11.95807736	      2.22580414	      8.03814731	     -5.92910941	    -17.42252354	    -36.39440527	     -3.68509815	     -9.50072868	     18.24989589	    -14.60233258	     -7.01545577	    -23.17031518
      2.14500000	      9.88280171	      0.69708279	      1.11993323	      0.53430003	      1.01849553	      0.05472914	    -11.92826477	      2.81395316	    -17.67202916	     -9.42277509	      3.66480279	     12.11017037	      2.16193775	      8.36411077	     -5.91843543	    -17.89139529	    -35.32766415	     -3.76825990	     -9.23557083	     18.17441018	    -14.55241056	     -6.98889023	    -22.92113150
      2.15000000	      9.85520797	      0.59734105	      0.82355753	      0.54004391	      1.01804003	      0.05530123	    -12.35304733	      2.89930051	    -17.41371235	     -9.22775726	      3.87073092	     12.25904014	      2.10038295	      8.69193974	     -5.91317708	    -18.37349821	    -34.26159818	     -3.86371446	     -8.97045945	     18.08916390	    -14.49645035	     -6.96375477	    -22.68222948
      2.15500000	      9.83014254	      0.48970375	      0.53300953	      0.54577691	      1.01752302	      0.05585555	    -12.77379120	      2.98771730	    -17.16389759	     -9.04707060	      4.08235978	     12.40589804	      2.04193412	      9.01219312	     -5.91685229	    -18.86512533	    -33.19694002	     -3.96073221	     -8.69870458	     17.99675655	    -14.44814074	     -6.92694134	    -22.44972700
      2.16000000	      9.80847076	      0.37050724	      0.24517312	      0.55149227	      1.01694709	      0.05641200	    -13.19275950	      3.08713394	    -16.87227947	     -8.88657062	      4.43296799	     12.49676955	      1.14200027	      9.32892213	     -5.93485602	    -19.36525849	    -32.15289662	     -3.95271642	     -8.34894079	     17.13435016	    -14.40868770	     -6.87904819	    -22.22245201
      2.16500000	      9.77309649	      0.26148414	     -0.03432446	      0.55724081	      1.01630584	      0.05691795	    -13.59001342	      3.16373594	    -16.67845938	     -8.74180457	      4.64539396	     12.71502433	      1.15071320	      9.64768023	     -5.93613168	    -19.87702399	    -31.08885284	     -4.06732722	     -8.08075724	     17.12338724	    -14.35120308	     -6.83849618	    -21.99633900
      2.17000000	      9.74682231	      0.14358940	     -0.31161319	      0.56297968	      1.01560458	      0.05742175	    -13.99297644	      3.24795960	    -16.46151774	     -8.60483652	      4.87398922	     12.87472075	      1.15889569	      9.95467213	     -5.94903721	    -20.40611551	    -30.03788774	     -4.16201936	     -7.79584694	     17.09811802	    -14.30896689	     -6.78924767	    -21.77671547
